<svg width="1444" height="81" viewBox="0 0 1444 81" fill="none" xmlns="http://www.w3.org/2000/svg">
<g style="mix-blend-mode:exclusion">
<path d="M1443.67 154.29H1391.48V131H1414.77V23.3901H1391.48V0.100098H1443.67V154.29Z" fill="#F7F7F7" fill-opacity="0.65"/>
</g>
<g style="mix-blend-mode:exclusion">
<path d="M1345.88 131H1315.28V9.44995H1345.88V131Z" fill="#F7F7F7" fill-opacity="0.65"/>
</g>
<g style="mix-blend-mode:exclusion">
<path d="M1228.84 131H1198.24V9.44995H1255.53C1282.56 9.44995 1298.88 22.03 1298.88 44.13C1298.88 61.13 1289.36 71.16 1274.23 74.56V74.9C1304.66 80.17 1293.61 127.26 1300.58 129.3V131H1268.79C1262.84 125.9 1273.89 88.67 1247.88 88.67H1228.84V131ZM1228.84 63.68H1249.58C1261.82 63.68 1268.28 59.26 1268.28 49.06C1268.28 38.86 1261.82 34.44 1249.58 34.44H1228.84V63.68Z" fill="#F7F7F7" fill-opacity="0.65"/>
</g>
<g style="mix-blend-mode:exclusion">
<path d="M1105.66 131H1075.06V9.44995H1105.66V57.05H1147.31V9.44995H1177.91V131H1147.31V82.0399H1105.66V131Z" fill="#F7F7F7" fill-opacity="0.65"/>
</g>
<g style="mix-blend-mode:exclusion">
<path d="M999.647 133.72C961.057 133.72 939.467 106.86 939.467 70.14C939.467 33.59 961.057 6.72998 999.647 6.72998C1037.9 6.72998 1059.83 33.59 1059.83 70.14C1059.83 106.86 1037.9 133.72 999.647 133.72ZM999.647 108.73C1021.75 108.73 1028.55 91.39 1028.55 70.14C1028.55 49.06 1021.75 31.72 999.647 31.72C977.377 31.72 970.747 49.06 970.747 70.14C970.747 91.39 977.377 108.73 999.647 108.73Z" fill="#F7F7F7" fill-opacity="0.65"/>
</g>
<g style="mix-blend-mode:exclusion">
<path d="M819.611 131H789.011V9.44995H819.611V57.05H861.261V9.44995H891.861V131H861.261V82.0399H819.611V131Z" fill="#F7F7F7" fill-opacity="0.65"/>
</g>
<g style="mix-blend-mode:exclusion">
<path d="M726.242 133.72C694.452 133.72 670.482 117.57 670.482 89.69H701.422C701.422 103.8 712.132 109.07 725.902 109.07C737.292 109.07 743.072 104.48 743.072 98.19C743.072 87.82 731.002 85.1 714.172 80C693.092 73.54 674.222 65.38 674.222 43.62C674.222 17.1 694.962 6.72998 721.142 6.72998C749.532 6.72998 771.802 21.69 772.652 46.34H741.712C740.352 36.99 732.872 31.38 721.142 31.38C711.962 31.38 705.502 34.44 705.502 41.41C705.502 49.57 712.302 52.29 727.772 56.88C750.722 63.68 774.352 70.14 774.352 95.3C774.352 118.59 756.672 133.72 726.242 133.72Z" fill="#F7F7F7" fill-opacity="0.65"/>
</g>
<g style="mix-blend-mode:exclusion">
<path d="M583.37 131H552.771V9.44995H583.37L625.87 81.7H626.211V9.44995H656.81V131H626.211L583.711 58.75H583.37V131Z" fill="#F7F7F7" fill-opacity="0.65"/>
</g>
<g style="mix-blend-mode:exclusion">
<path d="M452.841 131H420.031L466.271 9.44995H497.041L543.621 131H510.131L502.311 105.67H460.661L452.841 131ZM481.401 37.5L467.631 82.38H495.511L481.741 37.5H481.401Z" fill="#F7F7F7" fill-opacity="0.65"/>
</g>
<g style="mix-blend-mode:exclusion">
<path d="M392.881 131H360.581L320.121 9.44995H353.611L376.561 94.6199H376.901L400.021 9.44995H432.321L392.881 131Z" fill="#F7F7F7" fill-opacity="0.65"/>
</g>
<g style="mix-blend-mode:exclusion">
<path d="M314.729 131H221.569V9.44995H313.709V34.44H252.169V56.03H305.209V81.02H252.169V106.01H314.729V131Z" fill="#F7F7F7" fill-opacity="0.65"/>
</g>
<g style="mix-blend-mode:exclusion">
<path d="M153.478 131H97.8877V9.44995H151.778C185.608 9.44995 206.008 31.21 206.008 70.31C206.008 109.41 187.308 131 153.478 131ZM128.488 106.01H148.038C167.078 106.01 174.728 92.41 174.728 70.31C174.728 48.21 167.078 34.44 148.038 34.44H128.488V106.01Z" fill="#F7F7F7" fill-opacity="0.65"/>
</g>
<g style="mix-blend-mode:exclusion">
<path d="M52.2745 154.29H0.0844727V0.100098H52.2745V23.3901H28.9845V131H52.2745V154.29Z" fill="#F7F7F7" fill-opacity="0.65"/>
</g>
</svg>
